<svg preserveAspectRatio="none" width="100%" height="100%" overflow="visible" style="display: block;" viewBox="0 0 118 95" fill="none" xmlns="http://www.w3.org/2000/svg">
<g id="Slot 3">
<path id="Union" d="M34.6572 18.0459C36.2885 15.8184 39.4176 15.3349 41.6455 16.9658C49.1757 22.4788 55.3017 27.6601 60.7793 33.6113C66.7688 29.5481 73.6902 25.542 82.0547 21.1416C84.4984 19.8563 87.522 20.7957 88.8076 23.2393C90.0929 25.683 89.1535 28.7065 86.71 29.9922C78.9113 34.0949 72.5823 37.752 67.2012 41.3438C72.9829 49.0475 78.2194 58.1887 84.1777 70.292C85.397 72.7694 84.3767 75.7667 81.8994 76.9863C79.422 78.2056 76.4246 77.1853 75.2051 74.708C69.3428 62.7999 64.4019 54.2527 59.1299 47.2471C58.5892 47.6838 58.0577 48.1229 57.5352 48.5645C50.3244 54.6581 44.585 61.4205 38.1123 70.7783C36.5413 73.0491 33.4262 73.6167 31.1553 72.0459C28.8847 70.4749 28.3179 67.3597 29.8887 65.0889C36.6797 55.2709 42.9888 47.7642 51.0811 40.9258C51.6092 40.4795 52.1441 40.0365 52.6865 39.5967C47.9459 34.5704 42.5512 30.0227 35.7373 25.0342C33.5097 23.4028 33.0261 20.2738 34.6572 18.0459Z" fill="var(--fill-0, #DB7F00)"/>
</g>
</svg>
